# xmcd
#
# Track frame offsets: 
#        150
#        9905
#        28130
#        42182
#        59830
#        74997
#        93579
#        106810
#        119962
#        137865
#        148727
#        168700
#
# Disc length: 2400 seconds
#
# Revision: 0
# Processed by: cddbd v1.5.2PL0 Copyright (c) Steve Scherf et al.
# Submitted via: ExactAudioCopy v0.99pb4
#
DISCID=c1095e0c
DTITLE=Bobby Atkins - Lookin' Lucky
DYEAR=1996
DGENRE=Country
TTITLE0=Lookin' Lucky
TTITLE1=The Neverlasting Kind
TTITLE2=A Day Over Lovin' You
TTITLE3=Mama Did Raise One Fool
TTITLE4=Friendly Fire
TTITLE5=I Couldn't Care Less
TTITLE6=Don't Say I Never Gave You Nothin'
TTITLE7=Die With My Boots On
TTITLE8=Rumors Get Around
TTITLE9=So Far, So bad, So Long
TTITLE10=I lost My Furture In The Past
TTITLE11=Nobody's Business
EXTD=
EXTT0=
EXTT1=
EXTT2=
EXTT3=
EXTT4=
EXTT5=
EXTT6=
EXTT7=
EXTT8=
EXTT9=
EXTT10=
EXTT11=
PLAYORDER=
